<svg height="622" width="720" xmlns="http://www.w3.org/2000/svg">
<rect height="622" fill="#555" width="720"></rect>
<text fill="#7f7" font-family="Courier New" font-size="12" xml:space="preserve">
<tspan x="10" y="26">2 megabytes installed</tspan>
<tspan x="10" y="42"></tspan>
<tspan x="10" y="58">node_modules</tspan>
<tspan x="10" y="74">└─┬ vinyl-ftp@0.6.0 </tspan>
<tspan x="10" y="90">  ├─┬ ftp@0.3.10 </tspan>
<tspan x="10" y="106">  │ ├─┬ readable-stream@1.1.14 </tspan>
<tspan x="10" y="122">  │ │ ├── core-util-is@1.0.2 </tspan>
<tspan x="10" y="138">  │ │ ├── isarray@0.0.1 </tspan>
<tspan x="10" y="154">  │ │ └── string_decoder@0.10.31 </tspan>
<tspan x="10" y="170">  │ └── xregexp@2.0.0 </tspan>
<tspan x="10" y="186">  ├─┬ minimatch@3.0.3 </tspan>
<tspan x="10" y="202">  │ └─┬ brace-expansion@1.1.7 </tspan>
<tspan x="10" y="218">  │   ├── balanced-match@0.4.2 </tspan>
<tspan x="10" y="234">  │   └── concat-map@0.0.1 </tspan>
<tspan x="10" y="250">  ├── object-assign@4.1.1 </tspan>
<tspan x="10" y="266">  ├─┬ parallel-transform@1.1.0 </tspan>
<tspan x="10" y="282">  │ ├── cyclist@0.2.2 </tspan>
<tspan x="10" y="298">  │ ├── inherits@2.0.3 </tspan>
<tspan x="10" y="314">  │ └─┬ readable-stream@2.2.9 </tspan>
<tspan x="10" y="330">  │   ├── buffer-shims@1.0.0 </tspan>
<tspan x="10" y="346">  │   ├── isarray@1.0.0 </tspan>
<tspan x="10" y="362">  │   ├── process-nextick-args@1.0.7 </tspan>
<tspan x="10" y="378">  │   ├── string_decoder@1.0.0 </tspan>
<tspan x="10" y="394">  │   └── util-deprecate@1.0.2 </tspan>
<tspan x="10" y="410">  ├─┬ through2@2.0.3 </tspan>
<tspan x="10" y="426">  │ ├─┬ readable-stream@2.2.9 </tspan>
<tspan x="10" y="442">  │ │ ├── isarray@1.0.0 </tspan>
<tspan x="10" y="458">  │ │ └── string_decoder@1.0.0 </tspan>
<tspan x="10" y="474">  │ └── xtend@4.0.1 </tspan>
<tspan x="10" y="490">  └─┬ vinyl@2.0.1 </tspan>
<tspan x="10" y="506">    ├── clone@1.0.2 </tspan>
<tspan x="10" y="522">    ├── clone-buffer@1.0.0 </tspan>
<tspan x="10" y="538">    ├── clone-stats@1.0.0 </tspan>
<tspan x="10" y="554">    ├── cloneable-readable@1.0.0 </tspan>
<tspan x="10" y="570">    ├── is-stream@1.1.0 </tspan>
<tspan x="10" y="586">    ├── remove-trailing-separator@1.0.1 </tspan>
<tspan x="10" y="602">    └── replace-ext@1.0.0</tspan>
</text>
</svg>
